solid OpenSCAD_Model
  facet normal 0 1 -0
    outer loop
      vertex 4.5 -6.5 -6.5
      vertex 3.5 -6.5 6.5
      vertex 4.5 -6.5 6.5
    endloop
  endfacet
  facet normal 0 1 0
    outer loop
      vertex 3.5 -6.5 6.5
      vertex 4.5 -6.5 -6.5
      vertex 3.5 -6.5 -6.5
    endloop
  endfacet
  facet normal 0 -1 0
    outer loop
      vertex 3.5 -5 -6.5
      vertex 4.5 -5 6.5
      vertex 3.5 -5 6.5
    endloop
  endfacet
  facet normal 0 -1 -0
    outer loop
      vertex 4.5 -5 6.5
      vertex 3.5 -5 -6.5
      vertex 4.5 -5 -6.5
    endloop
  endfacet
  facet normal -1 0 0
    outer loop
      vertex -3.5 -2.5 -6.5
      vertex -3.5 -1.75 6.5
      vertex -3.5 -1.75 -6.5
    endloop
  endfacet
  facet normal -1 -0 0
    outer loop
      vertex -3.5 -1.75 6.5
      vertex -3.5 -2.5 -6.5
      vertex -3.5 -2.5 6.5
    endloop
  endfacet
  facet normal 1 -0 0
    outer loop
      vertex 3.5 -6.5 6.5
      vertex 3.5 -5 -6.5
      vertex 3.5 -5 6.5
    endloop
  endfacet
  facet normal 1 0 0
    outer loop
      vertex 3.5 -5 -6.5
      vertex 3.5 -6.5 6.5
      vertex 3.5 -6.5 -6.5
    endloop
  endfacet
  facet normal -1 0 0
    outer loop
      vertex -0.5 -7.25 -6.5
      vertex -0.5 -2.5 6.5
      vertex -0.5 -2.5 -6.5
    endloop
  endfacet
  facet normal -1 -0 0
    outer loop
      vertex -0.5 -2.5 6.5
      vertex -0.5 -7.25 -6.5
      vertex -0.5 -7.25 6.5
    endloop
  endfacet
  facet normal 0 -1 0
    outer loop
      vertex -3.5 -2.5 -6.5
      vertex -0.5 -2.5 6.5
      vertex -3.5 -2.5 6.5
    endloop
  endfacet
  facet normal 0 -1 -0
    outer loop
      vertex -0.5 -2.5 6.5
      vertex -3.5 -2.5 -6.5
      vertex -0.5 -2.5 -6.5
    endloop
  endfacet
  facet normal 0 -1 0
    outer loop
      vertex -0.5 -7.25 -6.5
      vertex 4.5 -7.25 6.5
      vertex -0.5 -7.25 6.5
    endloop
  endfacet
  facet normal 0 -1 -0
    outer loop
      vertex 4.5 -7.25 6.5
      vertex -0.5 -7.25 -6.5
      vertex 4.5 -7.25 -6.5
    endloop
  endfacet
  facet normal 1 -0 0
    outer loop
      vertex 4.5 -7.25 6.5
      vertex 4.5 -6.5 -6.5
      vertex 4.5 -6.5 6.5
    endloop
  endfacet
  facet normal 1 0 0
    outer loop
      vertex 4.5 -6.5 -6.5
      vertex 4.5 -7.25 6.5
      vertex 4.5 -7.25 -6.5
    endloop
  endfacet
  facet normal 1 -0 0
    outer loop
      vertex 4.5 -5 6.5
      vertex 4.5 -1.75 -6.5
      vertex 4.5 -1.75 6.5
    endloop
  endfacet
  facet normal 1 0 0
    outer loop
      vertex 4.5 -1.75 -6.5
      vertex 4.5 -5 6.5
      vertex 4.5 -5 -6.5
    endloop
  endfacet
  facet normal 0 0 1
    outer loop
      vertex 4.5 -1.75 6.5
      vertex 3.5 -5 6.5
      vertex 4.5 -5 6.5
    endloop
  endfacet
  facet normal 0 0 1
    outer loop
      vertex -0.5 -7.25 6.5
      vertex 3.5 -5 6.5
      vertex -0.5 -2.5 6.5
    endloop
  endfacet
  facet normal 0 0 1
    outer loop
      vertex 4.5 -1.75 6.5
      vertex -0.5 -2.5 6.5
      vertex 3.5 -5 6.5
    endloop
  endfacet
  facet normal -0 0 1
    outer loop
      vertex -3.5 -1.75 6.5
      vertex -0.5 -2.5 6.5
      vertex 4.5 -1.75 6.5
    endloop
  endfacet
  facet normal 0 0 1
    outer loop
      vertex -0.5 -2.5 6.5
      vertex -3.5 -1.75 6.5
      vertex -3.5 -2.5 6.5
    endloop
  endfacet
  facet normal -0 0 1
    outer loop
      vertex 3.5 -6.5 6.5
      vertex 4.5 -7.25 6.5
      vertex 4.5 -6.5 6.5
    endloop
  endfacet
  facet normal 0 0 1
    outer loop
      vertex 3.5 -6.5 6.5
      vertex -0.5 -7.25 6.5
      vertex 4.5 -7.25 6.5
    endloop
  endfacet
  facet normal 0 0 1
    outer loop
      vertex 3.5 -5 6.5
      vertex -0.5 -7.25 6.5
      vertex 3.5 -6.5 6.5
    endloop
  endfacet
  facet normal 0 1 -0
    outer loop
      vertex 4.5 -1.75 -6.5
      vertex -3.5 -1.75 6.5
      vertex 4.5 -1.75 6.5
    endloop
  endfacet
  facet normal 0 1 0
    outer loop
      vertex -3.5 -1.75 6.5
      vertex 4.5 -1.75 -6.5
      vertex -3.5 -1.75 -6.5
    endloop
  endfacet
  facet normal 0 0 -1
    outer loop
      vertex 4.5 -7.25 -6.5
      vertex 3.5 -6.5 -6.5
      vertex 4.5 -6.5 -6.5
    endloop
  endfacet
  facet normal -0 0 -1
    outer loop
      vertex 3.5 -6.5 -6.5
      vertex -0.5 -7.25 -6.5
      vertex 3.5 -5 -6.5
    endloop
  endfacet
  facet normal 0 0 -1
    outer loop
      vertex -0.5 -7.25 -6.5
      vertex 3.5 -6.5 -6.5
      vertex 4.5 -7.25 -6.5
    endloop
  endfacet
  facet normal 0 0 -1
    outer loop
      vertex 3.5 -5 -6.5
      vertex 4.5 -1.75 -6.5
      vertex 4.5 -5 -6.5
    endloop
  endfacet
  facet normal 0 0 -1
    outer loop
      vertex -0.5 -2.5 -6.5
      vertex 3.5 -5 -6.5
      vertex -0.5 -7.25 -6.5
    endloop
  endfacet
  facet normal 0 0 -1
    outer loop
      vertex 3.5 -5 -6.5
      vertex -0.5 -2.5 -6.5
      vertex 4.5 -1.75 -6.5
    endloop
  endfacet
  facet normal 0 0 -1
    outer loop
      vertex -3.5 -1.75 -6.5
      vertex -0.5 -2.5 -6.5
      vertex -3.5 -2.5 -6.5
    endloop
  endfacet
  facet normal 0 0 -1
    outer loop
      vertex -0.5 -2.5 -6.5
      vertex -3.5 -1.75 -6.5
      vertex 4.5 -1.75 -6.5
    endloop
  endfacet
endsolid OpenSCAD_Model
